<?xml version="1.0" encoding="UTF-8"?>
<!DOCTYPE svg PUBLIC "-//W3C//DTD SVG 1.1//EN" "http://www.w3.org/Graphics/SVG/1.1/DTD/svg11.dtd">
<!-- Creator: CorelDRAW 2021 (64 Bit) -->
<svg xmlns="http://www.w3.org/2000/svg" xml:space="preserve" width="2.7093mm" height="4.2049mm" version="1.1" style="shape-rendering:geometricPrecision; text-rendering:geometricPrecision; image-rendering:optimizeQuality; fill-rule:evenodd; clip-rule:evenodd"
viewBox="0 0 0.44 0.69"
 xmlns:xlink="http://www.w3.org/1999/xlink"
 xmlns:xodm="http://www.corel.com/coreldraw/odm/2003">
 <defs>
     <clipPath id="id0">
      <path d="M0.12 0.07c0.02,-0.01 0.03,-0.03 0.04,-0.05 0.01,0.01 0.01,0.02 0.01,0.04 0.03,-0.02 0.03,-0.05 0.02,-0.07 0.03,0 0.06,0.02 0.07,0.08 0.01,-0.01 0.01,-0.02 0.01,-0.03 0.03,0.01 0.05,0.03 0.06,0.07 0,-0.01 0,-0.02 0,-0.03 0.03,0.04 0.06,0.09 0.06,0.15 0.02,0 0.03,0.02 0.04,0.04 0.01,0 0.01,0 0.01,0.01l0 0.03c0,-0 0.01,0 0.01,0l0 0.02c-0,0 -0,0 -0,0l-0 -0c0,0.01 0,0.02 0,0.03 -0,0.01 -0,0.01 -0.01,0.01 -0.02,0.05 -0.04,0.07 -0.07,0.08 -0.01,0.02 -0.01,0.06 -0.01,0.09l0.05 -0 -0.17 0.14 -0.17 -0.14 0.05 -0c0,-0.02 0,-0.04 -0,-0.07 -0,-0.01 -0.01,-0.01 -0.01,-0.02 -0.04,-0.02 -0.05,-0.04 -0.07,-0.08 0,-0 -0,-0 -0,-0 -0,-0 -0.01,-0.01 -0.01,-0.01l-0 -0.02c-0,-0 -0,-0.01 -0.01,-0.01 -0,-0.01 -0,-0.01 -0,-0.02 0,-0 0,-0.01 0.01,-0 -0,-0.01 -0,-0.02 -0,-0.03 0,-0 0.01,-0.01 0.01,-0.01 0,-0.01 0.01,-0.02 0.02,-0.03 -0,-0.09 0.03,-0.14 0.08,-0.17zm0.01 0.34c0.02,-0.01 0.06,0 0.06,0 0,0.01 0,0.01 0,0.01 0.01,0.01 0.02,0.01 0.03,0.01 -0,-0.01 -0.01,-0.01 -0,-0.02 0.01,-0 0.02,-0 0.03,-0 -0,-0 -0,-0.01 -0.01,-0.01 -0.02,0 -0.02,-0.02 0.01,-0.01 0.01,0 0.02,0.01 0.02,0.02 0,0.01 0,0.01 -0.01,0.02 -0.01,-0 -0.01,-0 -0.02,0.01 -0,0 -0,0 0,0 0.01,-0.01 0.01,-0.01 0.01,0 0,0 0,0 0,0 0.01,-0 0.01,-0.01 0.01,-0.02 0,-0.01 0,-0.01 0.01,-0.01 0.01,-0 0.03,-0.01 0.04,-0.01 0.01,0 0.02,0.01 0.01,0.02 -0,0.01 -0,0.01 0,0.02 0.01,0.01 0.01,0.03 -0,0.05l0.01 -0.01 -0.01 0.07 0 0 0.02 -0 -0.13 0.09 -0.12 -0.09 0.02 0c0,-0.01 0,-0.02 0,-0.03 0,-0 0,-0.01 0.01,-0 0.02,0.02 0.04,0.04 0.05,0.07 0,-0.01 -0.02,-0.06 0.03,-0.03 0.01,0 0.01,0.01 0.02,0.01 0,-0.01 0.06,-0.04 0.07,-0.06 -0.09,0.07 -0.2,0.02 -0.17,-0.06 -0.04,-0.02 -0.04,-0.03 -0.02,-0.04zm-0.1 -0.13c0.01,-0.04 0.06,-0.05 0.11,-0.05 0,0 -0,0 -0.01,0.01 -0.05,-0 -0.08,0.01 -0.09,0.04 -0.01,0.02 -0.01,0.04 -0,0.07 0,0.02 0.01,0.03 0.03,0.03 0.04,-0.01 0.08,-0.01 0.11,-0.01 0,-0.01 0,-0.01 0.01,-0.01 0.02,-0 0.03,-0 0.05,-0 0.01,0 0.01,0.01 0.01,0.01 0.04,0 0.08,0.01 0.12,0.01 0.01,-0 0.02,-0.01 0.03,-0.02l-0 -0.05c0.01,-0.01 0.01,-0.01 0.02,0l0 0.08c-0,0.02 -0.02,0.04 -0.04,0.03 -0.1,-0.02 -0.21,-0.03 -0.32,0 -0.02,0 -0.03,-0.01 -0.04,-0.03 -0,-0.03 -0,-0.06 0,-0.09zm0.07 -0.05c0.08,-0.01 0.16,-0.02 0.25,-0 -0.01,-0.05 -0.05,-0.07 -0.12,-0.04 -0.08,-0.03 -0.11,-0 -0.13,0.04zm0.1 0.02c0.02,-0 0.03,-0 0.05,-0 0.01,-0 0.01,-0.01 -0,-0.01 -0.02,-0 -0.03,-0 -0.05,-0 -0.01,0 -0.01,0.01 0,0.01z"/>
     </clipPath>
     <clipPath id="id1">
      <path d="M0.19 0.51c0.01,-0 0.01,-0.01 0.02,-0.01 0.01,-0 0.02,-0 0.03,-0 0.01,-0 0.01,0 0.02,0 -0,-0 -0.01,-0.01 -0.01,-0.01 -0,-0 -0,-0 0,-0.01l0.01 -0.01 -0.02 0 -0.03 0 -0.01 -0.01c0,0.01 0.01,0.01 0.01,0.01 -0,0 -0.01,0.01 -0.01,0.01z"/>
     </clipPath>
     <clipPath id="id2">
      <path d="M0.17 0.48c0,0 0.01,0 0.01,0 0.01,-0.01 0.02,-0.01 0.04,-0.01 0,0 0.01,0 0.01,0 0,-0 0.02,-0 0.03,0 0.01,0 0.02,0 0.03,-0.01 -0.01,0 -0.02,-0 -0.02,-0 -0.01,-0.01 -0.02,-0.01 -0.03,-0 -0.01,0 -0.01,0 -0.02,-0 -0.01,-0 -0.01,-0 -0.02,-0 -0.01,0 -0.02,0.01 -0.02,0.02z"/>
     </clipPath>
 </defs>
 <g id="Camada_x0020_1">
  <metadata id="CorelCorpID_0Corel-Layer"/>
  <g id="_1371947733728">
   <g>
    <g style="clip-path:url(#id0)">
     <image x="-0" y="0" width="0.44" height="0.69" xlink:href="bllw fav_Images\bllw fav_ImgID1.png"/>
    </g>
   </g>
   <g>
    <g style="clip-path:url(#id1)">
     <image x="0.19" y="0.48" width="0.07" height="0.03" xlink:href="bllw fav_Images\bllw fav_ImgID2.png"/>
    </g>
   </g>
   <g>
    <g style="clip-path:url(#id2)">
     <image x="0.17" y="0.46" width="0.11" height="0.02" xlink:href="bllw fav_Images\bllw fav_ImgID3.png"/>
    </g>
   </g>
  </g>
 </g>
</svg>
