<?xml version="1.0" encoding="UTF-8"?>
<!DOCTYPE svg PUBLIC "-//W3C//DTD SVG 1.1//EN" "http://www.w3.org/Graphics/SVG/1.1/DTD/svg11.dtd">
<!-- Creator: CorelDRAW 2021 (64 Bit) -->
<svg xmlns="http://www.w3.org/2000/svg" xml:space="preserve" width="101.648mm" height="53.3083mm" version="1.1" style="shape-rendering:geometricPrecision; text-rendering:geometricPrecision; image-rendering:optimizeQuality; fill-rule:evenodd; clip-rule:evenodd"
viewBox="0 0 475.7 249.47"
 xmlns:xlink="http://www.w3.org/1999/xlink"
 xmlns:xodm="http://www.corel.com/coreldraw/odm/2003">
 <defs>
  <style type="text/css">
   <![CDATA[
    .fil0 {fill:#FFFF66}
   ]]>
  </style>
    <mask id="id0">
  <linearGradient id="id1" gradientUnits="userSpaceOnUse" x1="237.85" y1="23.68" x2="237.85" y2="230.06">
   <stop offset="0" style="stop-opacity:1; stop-color:white"/>
   <stop offset="1" style="stop-opacity:0; stop-color:white"/>
  </linearGradient>
     <rect style="fill:url(#id1)" y="-0" width="475.7" height="249.47"/>
    </mask>
    <mask id="id2">
  <linearGradient id="id3" gradientUnits="userSpaceOnUse" x1="237.85" y1="23.68" x2="237.85" y2="230.06">
   <stop offset="0" style="stop-opacity:1; stop-color:white"/>
   <stop offset="1" style="stop-opacity:0; stop-color:white"/>
  </linearGradient>
     <rect style="fill:url(#id3)" x="52.85" y="54.99" width="141.16" height="141.18"/>
    </mask>
    <mask id="id4">
  <linearGradient id="id5" gradientUnits="userSpaceOnUse" x1="237.85" y1="23.68" x2="237.85" y2="230.06">
   <stop offset="0" style="stop-opacity:1; stop-color:white"/>
   <stop offset="1" style="stop-opacity:0; stop-color:white"/>
  </linearGradient>
     <rect style="fill:url(#id5)" x="326.58" y="55.47" width="49.6" height="48.5"/>
    </mask>
    <mask id="id6">
  <linearGradient id="id7" gradientUnits="userSpaceOnUse" x1="237.85" y1="23.68" x2="237.85" y2="230.06">
   <stop offset="0" style="stop-opacity:1; stop-color:white"/>
   <stop offset="1" style="stop-opacity:0; stop-color:white"/>
  </linearGradient>
     <rect style="fill:url(#id7)" x="373.05" y="101.07" width="49.63" height="48.5"/>
    </mask>
    <mask id="id8">
  <linearGradient id="id9" gradientUnits="userSpaceOnUse" x1="237.85" y1="23.68" x2="237.85" y2="230.06">
   <stop offset="0" style="stop-opacity:1; stop-color:white"/>
   <stop offset="1" style="stop-opacity:0; stop-color:white"/>
  </linearGradient>
     <rect style="fill:url(#id9)" x="280.88" y="101.24" width="49.07" height="48.32"/>
    </mask>
    <mask id="id10">
  <linearGradient id="id11" gradientUnits="userSpaceOnUse" x1="237.85" y1="23.68" x2="237.85" y2="230.06">
   <stop offset="0" style="stop-opacity:1; stop-color:white"/>
   <stop offset="1" style="stop-opacity:0; stop-color:white"/>
  </linearGradient>
     <rect style="fill:url(#id11)" x="326.8" y="148.13" width="49.63" height="47.47"/>
    </mask>
 </defs>
 <g id="Camada_x0020_1">
  <metadata id="CorelCorpID_0Corel-Layer"/>
  <g id="_1371397137952">
   <path class="fil0" style="mask:url(#id0)" d="M-0 124.24c0,27.54 10.27,55.57 26.47,77.05 11.24,14.9 26.16,26.33 42.78,34.68 5.96,3 12.06,5.03 18.79,7.27 31.43,10.49 78.18,5.08 103.91,-13.92 10.08,-7.44 18.75,-15.37 27.59,-24.53 12.03,-17.12 -1.83,-25.34 -15.31,-15.31l-8.6 7.32c-26.76,24.9 -43.88,29.51 -79.8,29.51 -8.1,0 -13.16,-1.57 -19.24,-3.93 -6.04,-2.34 -11.33,-4.2 -17.17,-6.72 -22.89,-9.87 -36.08,-25.91 -47.33,-48.23 -18.67,-37.04 -9.96,-86.72 19.83,-115.06l13.12 -10.77c15.1,-11.15 33.84,-18.71 52.96,-18.71 28.71,0 48.24,6.2 70.54,22.85l14.33 13.9c1.87,2.08 4.27,5.39 5.93,7.83 15.72,23.15 16.75,51.24 20.99,78.91 3.17,20.67 7.54,31.03 17.8,45.18 9.51,13.12 11.31,18.63 26.77,30.42l12.75 8.97c6.26,4.1 11.42,6.44 18.81,9.42 12.51,5.05 33.53,9.1 50.26,9.1 11.4,0 38.56,-6.77 48.03,-11.33 13.71,-6.6 28.94,-15.96 38.42,-28.18 8.9,-11.46 14,-16.72 20.94,-31.18 15.99,-33.31 16.47,-75.7 -0.25,-108.84 -17.61,-34.91 -46.09,-57.36 -84.98,-66.32 -32.77,-7.55 -70.56,-0.6 -96.94,19.05 -2.46,1.83 -3.35,2.95 -5.47,4.66 -8.14,6.55 -19.32,17.13 -25.77,25.63 -9.63,12.7 8.69,14.85 21.43,5.5 13.53,-9.93 18.29,-19.08 36.39,-26.59 22.48,-9.34 46.38,-12.55 70.33,-5.79 30.6,8.63 54.85,29.81 66.81,59.15 11.19,27.46 11.12,57.65 -2.32,84.37 -11.07,21.99 -28.21,39.67 -51.15,48.75 -31.82,12.6 -56.43,12.92 -87.13,-2.65 -10.3,-5.23 -24.38,-16.57 -31.18,-25.28 -8.73,-11.17 -16.43,-22.06 -20.12,-36.35 -9.58,-37.14 -2.31,-73.57 -32.64,-109.25 -4.18,-4.91 -9.36,-10.93 -14.26,-14.7 -1.47,-1.13 -2.08,-1.83 -3.51,-3 -9.54,-7.79 -20.3,-13.44 -31.85,-18.09 -29.87,-12.02 -69.2,-12.79 -97.85,2.26 -13.31,6.99 -26.08,14.89 -36.73,25.53 -19.99,19.99 -31.16,44.25 -35.25,72.61 -0.55,3.82 -1.11,10.88 -1.13,14.62l0 0.18z"/>
   <path class="fil0" style="mask:url(#id2)" d="M99.18 85.87l0 15.93c-16.74,0 -46.33,-2 -46.33,20.99 0,12.38 2.18,19.64 14.04,24.33 8.58,3.39 21.43,2.45 33.02,2.45 -2.24,9.59 -1.67,35.9 9.87,42.97 9.4,5.76 28.13,5.75 34.3,-8.21 3.81,-8.61 3.61,-23.18 3.61,-34.04 18.18,0 46.33,0.15 46.33,-21.72 0,-10.97 -0.26,-21.03 -15.03,-24.78 -3.33,-0.85 -10.28,-1.98 -14.62,-2.03 -2.89,-0.04 -5.85,0.09 -8.75,0.06 -3.95,-0.05 -4.32,-0.75 -7.93,-0.75 0,-13.33 1.9,-30.46 -6.66,-38.94 -11.68,-11.58 -41.84,-12.54 -41.84,23.74z"/>
   <path class="fil0" style="mask:url(#id4)" d="M349.65 103.97c8.04,0 14.02,-1.73 19.38,-6.68 14.28,-13.18 6.1,-41.83 -15.04,-41.83 -9.04,0 -13.86,0.48 -20.47,7.04 -15.02,14.92 -3.86,41.46 16.12,41.46z"/>
   <path class="fil0" style="mask:url(#id6)" d="M394.53 149.57c8.51,0 14.93,0.09 21.9,-7.78 14.17,-16 2.63,-40.73 -19.01,-40.73 -6.76,0 -13.28,2.83 -16.86,6.3 -8.65,8.37 -10.52,23.53 -1.99,34.27 2.59,3.26 10.22,7.93 15.96,7.93z"/>
   <path class="fil0" style="mask:url(#id8)" d="M280.88 122.07c0,10.52 1.08,20.87 13.54,25.55 9.74,3.66 20.57,2.13 27.91,-4.38 2.08,-1.84 4.11,-4.27 5.39,-6.92 4.23,-8.76 2.24,-20.95 -4.28,-27.86 -8.46,-8.97 -24.8,-9.73 -34.45,-1.46 -4.29,3.68 -8.1,9.16 -8.1,15.06z"/>
   <path class="fil0" style="mask:url(#id10)" d="M376.43 172.74c0,-12.34 -8.79,-24.61 -20.27,-24.61 -11.77,0 -22.68,2.34 -27.61,14.37 -3.92,9.56 -0.88,20.89 5.33,26.74 11.91,11.23 35.42,7.15 40.88,-8.77 0.54,-1.56 1.68,-6.16 1.68,-7.73z"/>
  </g>
 </g>
</svg>
